<svg width="101" height="32" viewBox="0 0 101 32" fill="none" xmlns="http://www.w3.org/2000/svg">
<path d="M43.9315 8.1062H41.7995L35.4364 23.5048H37.7223L39.0081 20.4031H46.701L47.9868 23.5048H50.2727L43.9315 8.1062ZM42.8326 11.0539L45.7998 18.2363H39.8873L42.8326 11.0539Z" fill="#3581D6"/>
<path d="M54.9431 15.8821V16.872H50.0526V15.8821H54.9431Z" fill="white"/>
<path d="M57.7347 7.93091H56.6577V23.8465H66.5925V22.7576H57.7347V7.93091Z" fill="white"/>
<path d="M71.4721 12.2419C69.8932 12.2478 68.381 12.8796 67.2667 13.999C66.1523 15.1184 65.5266 16.6342 65.5266 18.2144C65.5299 19.3904 65.8806 20.5392 66.5346 21.5162C67.1886 22.4932 68.1168 23.2547 69.2023 23.705C70.2877 24.1554 71.482 24.2743 72.6349 24.0469C73.7877 23.8195 74.8476 23.2559 75.6812 22.427L75.8131 22.295L75.0548 21.5251L74.9229 21.6571C74.2731 22.3032 73.4548 22.7532 72.5614 22.9557C71.6681 23.1582 70.7358 23.1049 69.8713 22.8019C69.0068 22.499 68.245 21.9586 67.6729 21.2426C67.1009 20.5267 66.7417 19.664 66.6366 18.7534H77.4396V18.2144C77.4309 16.6331 76.7994 15.119 75.6822 14.0008C74.5649 12.8826 73.0521 12.2506 71.4721 12.2419ZM71.4721 13.3418C72.6627 13.3524 73.8085 13.7973 74.6947 14.5932C75.5809 15.389 76.1466 16.481 76.2857 17.6645H66.6366C66.7737 16.4753 67.3414 15.3776 68.2324 14.579C69.1235 13.7805 70.276 13.3364 71.4721 13.3308V13.3418Z" fill="white"/>
<path d="M86.1657 12.5825L81.9126 22.8446L77.7035 12.6925L77.6596 12.5825H76.4836L81.1104 23.7245L81.1543 23.8455H82.6599L87.3306 12.5825H86.1657Z" fill="white"/>
<path d="M92.3088 12.2419C90.7298 12.2506 89.2181 12.883 88.1026 14.0015C86.9871 15.12 86.3581 16.6341 86.3523 18.2144C86.3534 19.3927 86.7033 20.5442 87.3579 21.5235C88.0125 22.5029 88.9424 23.2661 90.0301 23.7169C91.1178 24.1676 92.3146 24.2857 93.4693 24.0561C94.624 23.8265 95.6849 23.2596 96.5179 22.427L96.6498 22.295L95.8915 21.5251L95.7596 21.6571C95.1102 22.3065 94.291 22.7594 93.396 22.9638C92.501 23.1681 91.5666 23.1157 90.7 22.8124C89.8335 22.5092 89.07 21.9674 88.4973 21.2494C87.9245 20.5314 87.5658 19.6662 87.4623 18.7534H98.2653V18.2144C98.2566 16.6331 97.6251 15.119 96.5079 14.0008C95.3906 12.8826 93.8778 12.2506 92.2978 12.2419H92.3088ZM92.3088 13.3418C93.5069 13.3417 94.6635 13.7818 95.5589 14.5786C96.4543 15.3754 97.0263 16.4735 97.1663 17.6645H87.4623C87.5996 16.4734 88.1689 15.3742 89.0622 14.5754C89.9556 13.7766 91.1108 13.3337 92.3088 13.3308V13.3418Z" fill="white"/>
<path d="M100.09 7.93018H99.0127V23.8348H100.09V7.93018Z" fill="white"/>
<path d="M74.4284 27.498C74.4308 27.62 74.4086 27.7413 74.3633 27.8547C74.318 27.968 74.2505 28.0712 74.1647 28.1579C73.9896 28.3325 73.7525 28.4306 73.5053 28.4306C73.2581 28.4306 73.021 28.3325 72.8459 28.1579C72.7601 28.0712 72.6925 27.968 72.6472 27.8547C72.6019 27.7413 72.5798 27.62 72.5821 27.498V25.0232H71.8019V27.498C71.7995 27.7225 71.842 27.9452 71.9269 28.1529C72.0119 28.3607 72.1375 28.5494 72.2964 28.7079C72.4543 28.8674 72.6428 28.9935 72.8505 29.0785C73.0582 29.1635 73.2809 29.2058 73.5053 29.2028C73.7282 29.2069 73.9495 29.165 74.1556 29.0799C74.3617 28.9948 74.548 28.8681 74.7032 28.7079C74.8616 28.5496 74.9862 28.3607 75.0693 28.1527C75.1525 27.9447 75.1924 27.7219 75.1867 27.498V25.0232H74.4064L74.4284 27.498Z" fill="#3581D6"/>
<path d="M80.3627 25.0227H79.2198L77.1757 26.9145V25.0227H76.4064V29.0923H77.1757V27.9704L77.6812 27.5085L79.3626 29.0923H80.4836L78.2527 26.9805L80.3627 25.0227Z" fill="#3581D6"/>
<path d="M84.5056 26.4966C84.5027 26.1066 84.3466 25.7334 84.0711 25.4576C83.7955 25.1818 83.4226 25.0256 83.033 25.0227H81.0988V29.0923H81.879V27.9924H82.8022L83.4616 29.0923H84.3627L83.6264 27.8384C83.8193 27.7558 83.9919 27.6319 84.1319 27.4755C84.3787 27.2101 84.5127 26.859 84.5056 26.4966ZM83.5275 26.9915C83.463 27.0566 83.3858 27.1077 83.3007 27.1418C83.2157 27.1758 83.1245 27.1921 83.033 27.1895H81.934V25.8036H83.033C83.1245 25.8011 83.2157 25.8173 83.3007 25.8514C83.3858 25.8854 83.463 25.9365 83.5275 26.0016C83.5933 26.0661 83.6456 26.1431 83.6812 26.2281C83.7169 26.3131 83.7353 26.4044 83.7353 26.4966C83.7353 26.5888 83.7169 26.68 83.6812 26.765C83.6456 26.85 83.5933 26.927 83.5275 26.9915Z" fill="#3581D6"/>
<path d="M87.649 25.0227H87.1215L85.4401 29.0923H86.2753L86.594 28.3224H88.3743L88.704 29.0923H89.4733L87.7809 25.0227H87.649ZM86.9127 27.5525L87.4732 26.2106L88.0227 27.5525H86.9127Z" fill="#3581D6"/>
<path d="M91.2866 25.0227H90.5063V29.0923H91.2866V25.0227Z" fill="#3581D6"/>
<path d="M95.1552 27.6515L93.3309 25.0227H93.1661H92.7375H92.5836V29.0923H93.3529V26.4196L95.2102 29.0923H95.375H95.7707H95.9245V25.0227H95.1552V27.6515Z" fill="#3581D6"/>
<path d="M99.8698 25.8036V25.0227H97.1223V29.0923H99.8698V28.3224H97.9026V27.4535H99.661V26.6726H97.9026V25.8036H99.8698Z" fill="#3581D6"/>
<path d="M20.0673 19.3909L20.0234 27.4202L13.5174 23.8015L13.3965 15.5742L20.0673 19.3909Z" fill="#3581D6"/>
<path d="M13.7261 7.88624L13.781 15.9265L20.287 12.3078L20.4079 4.06958L13.7261 7.88624Z" fill="#6EB2FD"/>
<path d="M7.03357 19.6773L7.08852 27.7065L13.5945 24.0879L13.7154 15.8496L7.03357 19.6773Z" fill="#6EB2FD"/>
<path d="M20.4082 19.3909L20.4522 27.4202L26.9581 23.8015L27.079 15.5742L20.4082 19.3909Z" fill="#6EB2FD"/>
<path d="M0.329712 7.88624L0.373671 15.9265L6.87965 12.3078L7.00054 4.06958L0.329712 7.88624Z" fill="#6EB2FD"/>
<path d="M13.7154 7.88624L13.6714 15.9265L7.15446 12.3078L7.03357 4.06958L13.7154 7.88624Z" fill="#3581D6"/>
<path d="M7.00054 19.6773L6.95658 27.7065L0.4506 24.0879L0.329712 15.8496L7.00054 19.6773Z" fill="#3581D6"/>
<path d="M27.079 8.11745L27.0351 16.1467L20.5181 12.5281L20.4082 4.28979L27.079 8.11745Z" fill="#3581D6"/>
<path d="M20.3309 12.1541L13.4513 15.9927L20.1881 19.6114L26.8039 16.1467L20.3309 12.1541Z" fill="#FFF700"/>
<path d="M13.8583 0.296875L6.97864 4.13553L13.7264 7.75421L20.3313 4.28952L13.8583 0.296875Z" fill="#FFF700"/>
<path d="M7.15417 12.1211L0.274536 15.9597L7.0113 19.5784L13.6272 16.1247L7.15417 12.1211Z" fill="#FFF700"/>
<path d="M13.7594 23.6919L6.89075 27.5415L13.6275 31.1602L20.2434 27.6955L13.7594 23.6919Z" fill="#FFF700"/>
<path d="M13.6604 31.6992L13.5285 31.6332L0 23.7799V7.93029L13.6604 0L13.7812 0.0769931L27.3097 7.93029V23.7799L13.6604 31.6992ZM0.472563 23.4829L13.6604 31.1822L26.8482 23.5379V8.21626L13.6604 0.582948L0.505532 8.21626L0.472563 23.4829Z" fill="black"/>
<path d="M13.7372 8.18303L6.83557 4.24538L7.07735 3.80542L13.7262 7.60008L20.2871 3.84942L20.5289 4.28938L13.7372 8.18303Z" fill="black"/>
<path d="M13.4809 7.88292L13.3944 23.8752L13.8999 23.878L13.9864 7.88565L13.4809 7.88292Z" fill="black"/>
<path d="M20.2761 27.9042L13.6273 24.0986L7.07735 27.8492L6.82458 27.4203L13.6273 23.5266L20.5289 27.4643L20.2761 27.9042Z" fill="black"/>
<path d="M20.0061 19.6332L19.957 27.6733L20.4626 27.6764L20.5116 19.6363L20.0061 19.6332Z" fill="black"/>
<path d="M20.0848 4.0639L20.0345 12.302L20.5401 12.3051L20.5903 4.06699L20.0848 4.0639Z" fill="black"/>
<path d="M6.83707 19.5784L6.7876 27.6846L7.29312 27.6877L7.3426 19.5815L6.83707 19.5784Z" fill="black"/>
<path d="M6.9128 4.07236L6.86487 12.1565L7.37039 12.1595L7.41832 4.07536L6.9128 4.07236Z" fill="black"/>
<path d="M20.1994 19.9195L13.4407 16.0918L13.6825 15.6519L20.2104 19.3475L26.8922 15.7069L27.134 16.1468L20.1994 19.9195Z" fill="black"/>
<path d="M26.947 16.2349L20.2872 12.5942L13.7373 16.1909L13.4955 15.7509L20.2872 12.0112L27.1888 15.7949L26.947 16.2349Z" fill="black"/>
<path d="M7.08813 19.7985L0.208496 16.0918L0.450272 15.6519L7.08813 19.2265L13.6601 15.6959L13.9018 16.1468L7.08813 19.7985Z" fill="black"/>
<path d="M13.5723 16.191L7.11026 12.4953L0.3625 16.147L0.131714 15.707L7.12125 11.9233L13.825 15.751L13.5723 16.191Z" fill="black"/>
</svg>
